<svg id="Capa_1" data-name="Capa 1" xmlns="http://www.w3.org/2000/svg" viewBox="0 0 221.47 303.5"><defs><style>.cls-1,.cls-2{fill:none;}.cls-1,.cls-2,.cls-3{stroke:#000;stroke-miterlimit:10;}.cls-1{stroke-width:11px;}.cls-2{stroke-width:7px;}.cls-3{font-size:33px;stroke-width:2px;font-family:BodoniSvtyTwoITCTT-Book, Bodoni 72;letter-spacing:0.14em;}</style></defs><title>Logo</title><path class="cls-1" d="M730,468.51" transform="translate(-682.53 -159.5)"/><path class="cls-1" d="M900.5,457.5" transform="translate(-682.53 -159.5)"/><path class="cls-1" d="M725.55,416.16h173V165h-177Z" transform="translate(-682.53 -159.5)"/><path class="cls-1" d="M900.5,457.5h-190" transform="translate(-682.53 -159.5)"/><line class="cls-2" x1="43.97" y1="276" x2="193.47" y2="277"/><path class="cls-1" d="M702.5,449.5" transform="translate(-682.53 -159.5)"/><text class="cls-3" transform="translate(87.99 108.69)">READ</text><path class="cls-1" d="M710.5,457.5c-10.07-3.21-18.29-9.77-19-17-1-10,12.31-23.74,34-24" transform="translate(-682.53 -159.5)"/><path class="cls-1" d="M721.5,165.5c-19.75-1.44-39,20-32,43,2.64,8.66-1.4-4.38,0,0l2,232" transform="translate(-682.53 -159.5)"/></svg>